<svg width="1173" height="1265" viewBox="0 0 1173 1265" fill="none" xmlns="http://www.w3.org/2000/svg">
<g clip-path="url(#clip0_2409_47)">
<mask id="mask0_2409_47" style="mask-type:luminance" maskUnits="userSpaceOnUse" x="19" y="799" width="1136" height="466">
<path d="M1155 799H19V1265H1155V799Z" fill="white"/>
</mask>
<g mask="url(#mask0_2409_47)">
<path d="M86.4168 1026.64H108.883C151.019 1026.64 176.3 1001.35 176.3 962.01V799H145.406V962.01C145.406 984.488 134.165 995.735 108.883 995.735H86.4168C61.1355 995.735 48.7884 984.488 49.8936 962.01L55.5232 858.036H27.4271C21.7975 922.653 19 956.948 19 968.178C19 1004.15 46.5262 1026.63 86.4168 1026.63" fill="#010101"/>
<path d="M648.218 799H617.324V967.625H648.218V799Z" fill="#010101"/>
<path d="M412.259 799H381.365V967.625H412.259V799Z" fill="#010101"/>
<path d="M518.997 829.909H456.07L453.272 860.818H518.997C539.218 860.818 549.89 869.249 549.89 888.928V911.405C549.89 931.084 538.648 936.699 518.997 936.699H510.569C490.901 936.699 478.553 931.067 479.676 911.405L481.351 874.864H452.132L448.765 911.405C445.398 947.929 471.232 967.608 510.569 967.608H518.997C558.317 967.608 580.801 947.929 580.801 911.405V888.928C580.801 852.387 555.52 829.909 518.997 829.909Z" fill="#010101"/>
<path d="M1092.04 829.909H961.695L958.897 860.818H1092.04C1115.07 860.818 1122.93 869.249 1122.93 888.928V911.405C1122.93 931.084 1114.5 936.699 1092.04 936.699H1013.38C988.099 936.699 984.161 931.067 985.284 911.405L986.959 874.864H957.74L954.373 911.405C953.354 921.512 954.183 929.806 956.773 936.699H931.906C912.237 936.699 901.013 928.268 901.013 908.589V888.91C901.013 852.369 875.731 829.892 839.208 829.892H776.281L773.484 860.801H839.208C859.43 860.801 870.102 869.232 870.102 888.91V911.388C870.102 928.251 864.472 936.682 853.248 936.682C842.904 936.682 823.01 931.913 797.971 924.571C798.886 920.459 799.508 916.07 799.87 911.405L801.545 874.864H772.327L768.96 911.405C767.284 931.084 760.532 936.699 743.678 936.699H740.881C724.027 936.699 715.599 931.067 715.599 911.405V858.019H684.706V961.993C684.706 987.287 673.464 995.718 648.183 995.718H617.289V1026.63H648.183C688.453 1026.63 713.32 1003.49 715.427 962.2C723.284 966.139 732.799 967.608 740.881 967.608H743.678C762.311 967.608 776.627 961.596 786.211 950.054C822.112 962.563 845.39 967.608 856.045 967.608C868.047 967.608 880.031 961.907 887.975 952.542C897.594 961.907 911.892 967.608 931.889 967.608H1092C1131.32 967.608 1153.81 947.929 1153.81 911.405V888.928C1153.81 852.386 1131.34 829.909 1092 829.909" fill="#010101"/>
<path d="M344.842 956.378V888.928C344.842 852.387 319.56 829.909 283.037 829.909H220.11L217.313 860.818H283.037C303.259 860.818 313.931 869.249 313.931 888.928V936.716H271.795C252.126 936.716 242.577 931.084 243.699 911.423L245.374 874.881H216.156L212.788 911.423C209.421 947.964 232.457 967.643 268.981 967.643C284.004 967.643 299.045 966.986 313.81 965.915C312.67 988.185 301.325 995.735 277.408 995.735H212.806V1026.64H277.408C319.543 1026.64 344.824 1001.35 344.824 956.378" fill="#010101"/>
<path d="M49.8936 1144.13H19V1264.98H49.8936V1144.13Z" fill="#010101"/>
<path d="M527.441 1054.37V1073.88C507.133 1064.1 485.271 1060.47 464.963 1063.25V1033.57C481.99 1031.26 500.087 1033.42 517.46 1039.93C523.504 1042.19 527.441 1047.98 527.441 1054.36V1054.37Z" fill="#0095DA"/>
<path d="M1086.43 903.717V923.206C1066.12 913.427 1044.26 909.799 1023.95 912.58V882.915C1040.98 880.6 1059.07 882.76 1076.44 889.273C1082.49 891.519 1086.43 897.307 1086.43 903.7V903.717Z" fill="#0095DA"/>
<path d="M204.396 1096.36H173.503C161.708 1096.36 153.281 1099.73 144.854 1108.16L141.884 1111.13C131.747 1101.26 116.723 1096.34 97.6759 1096.34H19V1127.25H100.456C120.125 1127.25 125.737 1135.68 125.737 1152.54V1235.16H156.631V1152.54C156.631 1142.85 155.163 1134.42 152.366 1127.25H201.564C224.031 1127.25 232.458 1138.5 232.458 1158.16V1264.95H263.351V1158.16C263.351 1121.62 243.682 1096.32 204.362 1096.32" fill="#010101"/>
<path d="M527.423 1096.36H496.529V1264.98H527.423V1096.36Z" fill="#010101"/>
<path d="M330.803 1186.28V1177.85C330.803 1144.13 350.472 1127.27 378.568 1127.27H454.412V1096.36H378.568C330.803 1096.36 299.909 1127.27 299.909 1177.85V1186.28C299.909 1236.87 325.19 1264.98 375.753 1264.98H460.024V1234.07H375.753C344.859 1234.07 330.82 1220.03 330.82 1186.28" fill="#010101"/>
<path d="M605.65 1098.05L615.614 1127.92L617.289 1134.64H617.997L619.741 1127.92L629.705 1098.05H645.955V1143.27H636.492V1106.66H635.801L633.694 1114.1L624.093 1143.27H611.262L601.661 1114.1L599.572 1106.66H598.864V1143.27H589.4V1098.05H605.65Z" fill="#010101"/>
<path d="M659.442 1114C662.55 1111.3 666.988 1109.96 672.79 1109.96C678.593 1109.96 683.031 1111.3 686.105 1114C689.178 1116.68 690.733 1120.56 690.733 1125.61V1128.41C690.733 1133.4 689.196 1137.25 686.105 1139.95C683.013 1142.64 678.593 1143.99 672.79 1143.99C666.988 1143.99 662.55 1142.64 659.442 1139.95C656.333 1137.27 654.779 1133.42 654.779 1128.41V1125.61C654.779 1120.56 656.333 1116.69 659.442 1114ZM679.145 1134.44C680.527 1133.18 681.218 1131.26 681.218 1128.68V1125.25C681.218 1122.72 680.527 1120.82 679.145 1119.56C677.764 1118.3 675.64 1117.66 672.808 1117.66C669.976 1117.66 667.783 1118.3 666.384 1119.56C665.002 1120.82 664.312 1122.72 664.312 1125.25V1128.68C664.312 1131.26 665.002 1133.18 666.384 1134.44C667.765 1135.7 669.889 1136.34 672.808 1136.34C675.726 1136.34 677.764 1135.7 679.145 1134.44Z" fill="#010101"/>
<path d="M699.781 1096.36H709.314V1112.48C710.436 1111.68 711.835 1111.06 713.51 1110.61C715.185 1110.16 716.981 1109.94 718.898 1109.94C729.172 1109.94 734.319 1114.91 734.319 1124.86V1128.99C734.319 1138.95 729.172 1143.92 718.898 1143.92C716.29 1143.92 714.011 1143.59 712.111 1142.94C710.194 1142.28 708.778 1141.33 707.846 1140.07L707.293 1143.23H699.798V1096.32L699.781 1096.36ZM717.171 1136.61C719.934 1136.61 721.885 1136.06 723.059 1134.94C724.234 1133.81 724.803 1131.95 724.803 1129.32V1124.62C724.803 1122.01 724.216 1120.13 723.059 1119.01C721.885 1117.88 719.916 1117.33 717.171 1117.33C714.598 1117.33 712.646 1117.85 711.317 1118.87C709.987 1119.89 709.314 1121.41 709.314 1123.43V1130.52C709.314 1134.59 711.921 1136.61 717.171 1136.61Z" fill="#010101"/>
<path d="M752.917 1104.63H743.385V1096.36H752.917V1104.63ZM752.917 1143.26H743.385V1110.66H752.917V1143.26Z" fill="#010101"/>
<path d="M773.38 1096.36H763.848V1143.26H773.38V1096.36Z" fill="#010101"/>
<path d="M786.66 1113.89C789.631 1111.29 793.879 1109.96 799.456 1109.96C805.034 1109.96 809.369 1111.23 812.252 1113.81C815.119 1116.38 816.552 1120.22 816.552 1125.31V1130.29H791.737C791.824 1132.4 792.532 1133.94 793.844 1134.89C795.157 1135.84 797.229 1136.34 800.078 1136.34C805.207 1136.34 810.163 1135.99 814.929 1135.28L815.637 1142.44C809.939 1143.46 804.654 1143.97 799.802 1143.97C794.017 1143.97 789.631 1142.7 786.66 1140.16C783.69 1137.62 782.205 1133.9 782.205 1129.05V1125.4C782.205 1120.36 783.69 1116.52 786.66 1113.89ZM807.072 1124.62V1123.92C807.072 1121.57 806.485 1119.87 805.293 1118.8C804.102 1117.73 802.15 1117.19 799.439 1117.19C796.728 1117.19 794.638 1117.76 793.481 1118.9C792.307 1120.04 791.737 1121.95 791.737 1124.62H807.089H807.072Z" fill="#010101"/>
<path d="M617.289 1158.87C620.138 1159.54 622.677 1160.44 624.922 1161.58L622.262 1168.39C617.962 1166.57 613.783 1165.64 609.725 1165.64C605.667 1165.64 602.438 1166.69 600.487 1168.77C598.518 1170.84 597.551 1174.12 597.551 1178.61V1183.82C597.551 1188.22 598.501 1191.45 600.417 1193.56C602.334 1195.67 605.374 1196.72 609.535 1196.72C611.59 1196.72 613.904 1196.44 616.477 1195.91C619.05 1195.37 621.571 1194.6 624.041 1193.56L626.355 1200.35C623.644 1201.66 620.725 1202.68 617.6 1203.39C614.457 1204.12 611.521 1204.48 608.775 1204.48C601.903 1204.48 596.739 1202.7 593.251 1199.12C589.763 1195.55 588.019 1190.33 588.019 1183.45V1178.89C588.019 1172.01 589.814 1166.8 593.406 1163.22C597.016 1159.64 602.282 1157.86 609.242 1157.86C611.763 1157.86 614.457 1158.21 617.306 1158.88" fill="#010101"/>
<path d="M635.835 1174.5C638.944 1171.81 643.382 1170.46 649.184 1170.46C654.986 1170.46 659.424 1171.81 662.498 1174.5C665.572 1177.18 667.126 1181.07 667.126 1186.11V1188.91C667.126 1193.9 665.589 1197.76 662.498 1200.45C659.407 1203.15 654.986 1204.49 649.184 1204.49C643.382 1204.49 638.944 1203.15 635.835 1200.45C632.727 1197.77 631.173 1193.92 631.173 1188.91V1186.11C631.173 1181.07 632.727 1177.2 635.835 1174.5ZM655.522 1194.94C656.903 1193.68 657.594 1191.76 657.594 1189.19V1185.75C657.594 1183.23 656.903 1181.33 655.522 1180.06C654.14 1178.8 652.016 1178.16 649.184 1178.16C646.352 1178.16 644.159 1178.8 642.76 1180.06C641.379 1181.33 640.688 1183.23 640.688 1185.75V1189.19C640.688 1191.76 641.379 1193.68 642.76 1194.94C644.142 1196.2 646.266 1196.84 649.184 1196.84C652.102 1196.84 654.14 1196.2 655.522 1194.94Z" fill="#010101"/>
<path d="M676.227 1171.17H683.721L684.274 1174.26C685.154 1173.08 686.484 1172.17 688.246 1171.48C689.99 1170.8 691.976 1170.46 694.169 1170.46C698.883 1170.46 702.199 1171.88 704.115 1174.73C705.29 1173.31 706.878 1172.26 708.882 1171.53C710.885 1170.8 713.268 1170.44 716.031 1170.44C720.935 1170.44 724.579 1171.6 726.962 1173.91C729.345 1176.23 730.536 1179.96 730.536 1185.09V1203.75H721.004V1185.04C721.004 1182.36 720.521 1180.51 719.536 1179.43C718.552 1178.35 716.963 1177.82 714.77 1177.82C710.367 1177.82 708.174 1179.82 708.174 1183.85V1203.77H698.641V1185.06C698.641 1182.38 698.158 1180.53 697.173 1179.44C696.189 1178.37 694.6 1177.84 692.407 1177.84C687.969 1177.84 685.759 1179.84 685.759 1183.87V1203.79H676.227V1171.18V1171.17Z" fill="#010101"/>
<path d="M740.777 1171.17H748.272L748.824 1174.26C749.705 1173.08 751.035 1172.17 752.796 1171.48C754.54 1170.8 756.526 1170.46 758.719 1170.46C763.433 1170.46 766.749 1171.88 768.666 1174.73C769.84 1173.31 771.429 1172.26 773.432 1171.53C775.435 1170.8 777.818 1170.44 780.581 1170.44C785.486 1170.44 789.129 1171.6 791.512 1173.91C793.895 1176.23 795.087 1179.96 795.087 1185.09V1203.75H785.555V1185.04C785.555 1182.36 785.071 1180.51 784.07 1179.43C783.085 1178.35 781.496 1177.82 779.303 1177.82C774.9 1177.82 772.707 1179.82 772.707 1183.85V1203.77H763.174V1185.06C763.174 1182.38 762.691 1180.53 761.707 1179.44C760.722 1178.37 759.134 1177.84 756.94 1177.84C752.502 1177.84 750.292 1179.84 750.292 1183.87V1203.79H740.76V1171.18L740.777 1171.17Z" fill="#010101"/>
<path d="M830.35 1203.79L829.797 1200.62C828.865 1201.89 827.449 1202.84 825.601 1203.49C823.719 1204.15 821.577 1204.48 819.142 1204.48C814.186 1204.48 810.525 1203.23 808.177 1200.73C805.811 1198.22 804.637 1194.51 804.637 1189.55V1171.18H814.169V1189.9C814.169 1192.47 814.67 1194.32 815.671 1195.42C816.673 1196.55 818.417 1197.1 820.904 1197.1C825.86 1197.1 828.329 1195.06 828.329 1191V1171.15H837.862V1203.75H830.35V1203.79Z" fill="#010101"/>
<path d="M855.579 1171.17L856.132 1174.4C857.116 1173.14 858.532 1172.17 860.363 1171.5C862.21 1170.82 864.352 1170.48 866.787 1170.48C871.743 1170.48 875.404 1171.72 877.752 1174.23C880.118 1176.73 881.292 1180.45 881.292 1185.4V1203.77H871.76V1185.11C871.76 1182.5 871.259 1180.62 870.258 1179.51C869.239 1178.39 867.512 1177.84 865.025 1177.84C860.069 1177.84 857.6 1179.88 857.6 1183.94V1203.79H848.067V1171.19H855.579V1171.17Z" fill="#010101"/>
<path d="M900.788 1165.14H891.256V1156.86H900.788V1165.14ZM900.788 1203.79H891.256V1171.19H900.788V1203.79Z" fill="#010101"/>
<path d="M939.332 1172.22L937.933 1179.17C934.376 1178.46 930.974 1178.11 927.693 1178.11C924.757 1178.11 922.598 1178.75 921.2 1180.05C919.818 1181.33 919.127 1183.26 919.127 1185.84V1189.2C919.127 1191.78 919.818 1193.7 921.2 1194.96C922.581 1196.22 924.74 1196.86 927.693 1196.86C931.803 1196.86 935.809 1196.41 939.677 1195.53L940.73 1202.75C938.675 1203.27 936.396 1203.68 933.909 1204.01C931.405 1204.34 929.126 1204.49 927.071 1204.49C921.459 1204.49 917.159 1203.15 914.137 1200.45C911.132 1197.77 909.612 1193.92 909.612 1188.91V1186.11C909.612 1181.07 911.115 1177.2 914.137 1174.5C917.141 1171.81 921.459 1170.46 927.071 1170.46C930.576 1170.46 934.652 1171.05 939.332 1172.2" fill="#010101"/>
<path d="M969.811 1178.15C968.826 1177.42 967.117 1177.06 964.699 1177.06C962.783 1177.06 960.538 1177.16 957.982 1177.37C955.409 1177.58 953.164 1177.85 951.264 1178.18L950.556 1172.01C952.749 1171.6 955.219 1171.24 957.947 1170.93C960.693 1170.62 963.18 1170.48 965.407 1170.48C970.691 1170.48 974.56 1171.43 977.046 1173.31C979.516 1175.21 980.759 1178.22 980.759 1182.33V1203.86H973.403L972.695 1200.07C970.778 1203.01 966.806 1204.5 960.779 1204.5C956.376 1204.5 953.129 1203.61 951.005 1201.84C948.881 1200.06 947.811 1197.34 947.811 1193.7C947.811 1190.05 948.95 1187.39 951.213 1185.72C953.475 1184.04 957.205 1183.19 962.385 1183.19H971.296V1182.28C971.296 1180.27 970.812 1178.91 969.828 1178.18M958.673 1189.57C957.74 1190.29 957.274 1191.54 957.274 1193.32C957.274 1195.1 957.757 1196.2 958.707 1196.93C959.657 1197.65 961.211 1198.02 963.37 1198.02C965.804 1198.02 967.721 1197.52 969.155 1196.51C970.571 1195.51 971.296 1194.09 971.296 1192.28V1188.5H963.37C961.176 1188.5 959.605 1188.86 958.673 1189.59" fill="#010101"/>
<path d="M992.951 1171.17V1162.48H1002.48V1171.17H1010.46V1178.18H1002.48V1192.76C1002.48 1194.22 1002.83 1195.27 1003.5 1195.93C1004.18 1196.58 1005.18 1196.91 1006.47 1196.91H1010.48L1009.7 1203.93H1005.28C997.061 1203.93 992.951 1200.02 992.951 1192.21V1178.18H987.062V1171.17H992.951Z" fill="#010101"/>
<path d="M1028.97 1165.14H1019.44V1156.86H1028.97V1165.14ZM1028.97 1203.79H1019.44V1171.19H1028.97V1203.79Z" fill="#010101"/>
<path d="M1042.46 1174.5C1045.57 1171.81 1050.01 1170.46 1055.81 1170.46C1061.61 1170.46 1066.05 1171.81 1069.12 1174.5C1072.2 1177.18 1073.75 1181.07 1073.75 1186.11V1188.91C1073.75 1193.9 1072.21 1197.76 1069.12 1200.45C1066.03 1203.15 1061.61 1204.49 1055.81 1204.49C1050.01 1204.49 1045.57 1203.15 1042.46 1200.45C1039.35 1197.77 1037.8 1193.92 1037.8 1188.91V1186.11C1037.8 1181.07 1039.35 1177.2 1042.46 1174.5ZM1062.15 1194.94C1063.53 1193.68 1064.22 1191.76 1064.22 1189.19V1185.75C1064.22 1183.23 1063.53 1181.33 1062.15 1180.06C1060.77 1178.8 1058.64 1178.16 1055.81 1178.16C1052.98 1178.16 1050.78 1178.8 1049.39 1180.06C1048 1181.33 1047.31 1183.23 1047.31 1185.75V1189.19C1047.31 1191.76 1048 1193.68 1049.39 1194.94C1050.77 1196.2 1052.89 1196.84 1055.81 1196.84C1058.73 1196.84 1060.77 1196.2 1062.15 1194.94Z" fill="#010101"/>
<path d="M1090.36 1171.17L1090.92 1174.4C1091.9 1173.14 1093.32 1172.17 1095.15 1171.5C1096.99 1170.82 1099.14 1170.48 1101.57 1170.48C1106.53 1170.48 1110.19 1171.72 1112.54 1174.23C1114.9 1176.73 1116.08 1180.45 1116.08 1185.4V1203.77H1106.54V1185.11C1106.54 1182.5 1106.04 1180.62 1105.04 1179.51C1104.02 1178.39 1102.3 1177.84 1099.81 1177.84C1094.85 1177.84 1092.38 1179.88 1092.38 1183.94V1203.79H1082.85V1171.19H1090.36V1171.17Z" fill="#010101"/>
<path d="M1131.27 1203.98C1128.49 1203.65 1126.02 1203.2 1123.88 1202.65L1125.21 1196.12C1130.5 1197.1 1135.05 1197.58 1138.87 1197.58C1141.39 1197.58 1143.14 1197.34 1144.1 1196.84C1145.05 1196.36 1145.55 1195.49 1145.55 1194.28C1145.55 1193.64 1145.36 1193.13 1145 1192.78C1144.62 1192.44 1143.9 1192.11 1142.83 1191.83C1141.75 1191.55 1139.99 1191.23 1137.56 1190.85C1133.86 1190.24 1131.05 1189.55 1129.11 1188.77C1127.18 1188 1125.82 1187.03 1125.04 1185.84C1124.26 1184.64 1123.88 1183.04 1123.88 1181.03C1123.88 1173.97 1128.94 1170.44 1139.1 1170.44C1143.4 1170.44 1148.28 1171.05 1153.74 1172.26L1152.34 1178.72C1147.44 1177.84 1143.26 1177.39 1139.8 1177.39C1137.37 1177.39 1135.69 1177.61 1134.76 1178.06C1133.83 1178.51 1133.36 1179.27 1133.36 1180.34C1133.36 1181.05 1133.55 1181.6 1133.88 1182.02C1134.23 1182.43 1134.93 1182.79 1135.99 1183.07C1137.04 1183.35 1138.66 1183.66 1140.86 1183.99C1144.69 1184.54 1147.59 1185.2 1149.58 1185.96C1151.56 1186.72 1152.96 1187.68 1153.77 1188.89C1154.59 1190.1 1155 1191.76 1155 1193.87C1155 1197.51 1153.76 1200.19 1151.29 1201.9C1148.82 1203.61 1144.88 1204.46 1139.51 1204.46C1136.8 1204.46 1134.05 1204.3 1131.27 1203.98Z" fill="#010101"/>
<path d="M592.665 1235.01C595.773 1232.31 600.211 1230.96 606.013 1230.96C611.815 1230.96 616.253 1232.31 619.327 1235.01C622.401 1237.68 623.955 1241.57 623.955 1246.62V1249.42C623.955 1254.41 622.418 1258.26 619.327 1260.96C616.236 1263.65 611.815 1265 606.013 1265C600.211 1265 595.773 1263.65 592.665 1260.96C589.556 1258.28 588.002 1254.43 588.002 1249.42V1246.62C588.002 1241.57 589.556 1237.7 592.665 1235.01ZM612.351 1255.45C613.732 1254.18 614.423 1252.27 614.423 1249.69V1246.25C614.423 1243.73 613.732 1241.83 612.351 1240.57C610.969 1239.31 608.845 1238.67 606.013 1238.67C603.181 1238.67 600.988 1239.31 599.606 1240.57C598.225 1241.83 597.534 1243.73 597.534 1246.25V1249.69C597.534 1252.27 598.225 1254.18 599.606 1255.45C600.988 1256.71 603.112 1257.35 606.013 1257.35C608.914 1257.35 610.969 1256.71 612.351 1255.45Z" fill="#010101"/>
<path d="M638.495 1220.67C640.809 1218.47 644.349 1217.37 649.115 1217.37H654.728L654.02 1224.66H650.376C648.235 1224.66 646.715 1225.07 645.851 1225.92C644.988 1226.77 644.556 1228.27 644.556 1230.41V1231.74H652.897V1238.69H644.556V1264.27H635.024V1238.69H629.826V1231.74H635.024V1230.69C635.024 1226.19 636.181 1222.86 638.495 1220.67Z" fill="#010101"/>
<path d="M688.091 1219.06H678.559V1264.29H688.091V1219.06Z" fill="#010101"/>
<path d="M698.313 1231.67H705.808L706.516 1235.94C708.484 1232.62 711.489 1230.96 715.565 1230.96H719.985L719.277 1238.95H714.926C712.732 1238.95 711.006 1239.58 709.728 1240.88C708.467 1242.16 707.828 1243.9 707.828 1246.12V1264.27H698.296V1231.67H698.313Z" fill="#010101"/>
<path d="M746.321 1238.65C745.336 1237.93 743.627 1237.56 741.209 1237.56C739.292 1237.56 737.047 1237.67 734.492 1237.87C731.918 1238.08 729.674 1238.36 727.774 1238.69L727.066 1232.52C729.259 1232.1 731.729 1231.74 734.457 1231.43C737.203 1231.12 739.689 1230.98 741.917 1230.98C747.201 1230.98 751.069 1231.93 753.556 1233.81C756.026 1235.71 757.269 1238.72 757.269 1242.83V1264.36H749.912L749.204 1260.58C747.288 1263.51 743.316 1265 737.289 1265C732.886 1265 729.639 1264.12 727.515 1262.34C725.391 1260.56 724.32 1257.85 724.32 1254.2C724.32 1250.56 725.46 1247.9 727.722 1246.22C729.984 1244.54 733.714 1243.7 738.895 1243.7H747.806V1242.78C747.806 1240.78 747.322 1239.41 746.338 1238.69M735.182 1250.09C734.25 1250.81 733.784 1252.06 733.784 1253.84C733.784 1255.62 734.267 1256.72 735.217 1257.45C736.167 1258.17 737.721 1258.54 739.879 1258.54C742.314 1258.54 744.231 1258.04 745.664 1257.03C747.08 1256.03 747.806 1254.62 747.806 1252.8V1249.02H739.879C737.686 1249.02 736.115 1249.38 735.182 1250.11" fill="#010101"/>
<path d="M774.762 1231.67L775.314 1234.9C776.299 1233.64 777.715 1232.67 779.545 1232C781.393 1231.33 783.534 1230.98 785.969 1230.98C790.925 1230.98 794.586 1232.22 796.935 1234.73C799.301 1237.24 800.475 1240.95 800.475 1245.91V1264.27H790.943V1245.61C790.943 1243.01 790.442 1241.12 789.44 1240.02C788.421 1238.89 786.694 1238.34 784.208 1238.34C779.252 1238.34 776.782 1240.38 776.782 1244.44V1264.29H767.25V1231.69H774.762V1231.67Z" fill="#010101"/>
</g>
</g>
<path d="M1173 407.266V773C791.7 589.486 381.3 521.402 0 573.591V16.8977C319.721 -26.5479 659.341 13.9796 985.446 136.213C1099.03 178.364 1173 286.979 1173 406.947V407.266Z" fill="#0095DA"/>
<defs>
<clipPath id="clip0_2409_47">
<rect width="1136" height="466" fill="white" transform="translate(19 799)"/>
</clipPath>
</defs>
</svg>
